<mxfile host="Electron" modified="2023-10-28T19:52:42.268Z" agent="Mozilla/5.0 (Macintosh; Intel Mac OS X 10_15_7) AppleWebKit/537.36 (KHTML, like Gecko) draw.io/22.0.3 Chrome/114.0.5735.289 Electron/25.8.4 Safari/537.36" etag="SqU438PSTi2T5R_iZT-g" version="22.0.3" type="device">
  <diagram name="Drill down accepting ride by Driver" id="8dZDTHeo8D08LRkWfQlF">
    <mxGraphModel dx="1670" dy="1771" grid="1" gridSize="10" guides="1" tooltips="1" connect="1" arrows="1" fold="1" page="1" pageScale="1" pageWidth="1100" pageHeight="850" math="0" shadow="0">
      <root>
        <mxCell id="X2ThzPGtKYhUf4odgKNz-0" />
        <mxCell id="X2ThzPGtKYhUf4odgKNz-1" parent="X2ThzPGtKYhUf4odgKNz-0" />
        <mxCell id="X2ThzPGtKYhUf4odgKNz-2" value="exp-ride-x-press" style="swimlane;horizontal=0;whiteSpace=wrap;html=1;" parent="X2ThzPGtKYhUf4odgKNz-1" vertex="1">
          <mxGeometry y="20" width="1980" height="200" as="geometry" />
        </mxCell>
        <mxCell id="X2ThzPGtKYhUf4odgKNz-11" value="Get ride information" style="points=[[0.25,0,0],[0.5,0,0],[0.75,0,0],[1,0.25,0],[1,0.5,0],[1,0.75,0],[0.75,1,0],[0.5,1,0],[0.25,1,0],[0,0.75,0],[0,0.5,0],[0,0.25,0]];shape=mxgraph.bpmn.task;whiteSpace=wrap;rectStyle=rounded;size=10;html=1;container=1;expand=0;collapsible=0;taskMarker=abstract;" parent="X2ThzPGtKYhUf4odgKNz-2" vertex="1">
          <mxGeometry x="290" y="50" width="120" height="80" as="geometry" />
        </mxCell>
        <mxCell id="CamVfR9ugrW1JxGiYKS_-6" value="Store driver location for ride" style="points=[[0.25,0,0],[0.5,0,0],[0.75,0,0],[1,0.25,0],[1,0.5,0],[1,0.75,0],[0.75,1,0],[0.5,1,0],[0.25,1,0],[0,0.75,0],[0,0.5,0],[0,0.25,0]];shape=mxgraph.bpmn.task;whiteSpace=wrap;rectStyle=rounded;size=10;html=1;container=1;expand=0;collapsible=0;taskMarker=abstract;" parent="X2ThzPGtKYhUf4odgKNz-2" vertex="1">
          <mxGeometry x="800" y="60" width="120" height="80" as="geometry" />
        </mxCell>
        <mxCell id="awVs3pG0yQR2r-SzLTOa-23" value="Update Ride with client information" style="points=[[0.25,0,0],[0.5,0,0],[0.75,0,0],[1,0.25,0],[1,0.5,0],[1,0.75,0],[0.75,1,0],[0.5,1,0],[0.25,1,0],[0,0.75,0],[0,0.5,0],[0,0.25,0]];shape=mxgraph.bpmn.task;whiteSpace=wrap;rectStyle=rounded;size=10;html=1;container=1;expand=0;collapsible=0;taskMarker=abstract;" parent="X2ThzPGtKYhUf4odgKNz-2" vertex="1">
          <mxGeometry x="1720" y="70" width="120" height="80" as="geometry" />
        </mxCell>
        <mxCell id="X2ThzPGtKYhUf4odgKNz-5" value="Driver - Mobile App" style="swimlane;horizontal=0;whiteSpace=wrap;html=1;" parent="X2ThzPGtKYhUf4odgKNz-1" vertex="1">
          <mxGeometry y="220" width="1980" height="200" as="geometry" />
        </mxCell>
        <mxCell id="X2ThzPGtKYhUf4odgKNz-8" value="Gets ride Information" style="points=[[0.25,0,0],[0.5,0,0],[0.75,0,0],[1,0.25,0],[1,0.5,0],[1,0.75,0],[0.75,1,0],[0.5,1,0],[0.25,1,0],[0,0.75,0],[0,0.5,0],[0,0.25,0]];shape=mxgraph.bpmn.task;whiteSpace=wrap;rectStyle=rounded;size=10;html=1;container=1;expand=0;collapsible=0;taskMarker=abstract;" parent="X2ThzPGtKYhUf4odgKNz-5" vertex="1">
          <mxGeometry x="170" y="60" width="120" height="80" as="geometry" />
        </mxCell>
        <mxCell id="X2ThzPGtKYhUf4odgKNz-38" value="Display Ride information" style="points=[[0.25,0,0],[0.5,0,0],[0.75,0,0],[1,0.25,0],[1,0.5,0],[1,0.75,0],[0.75,1,0],[0.5,1,0],[0.25,1,0],[0,0.75,0],[0,0.5,0],[0,0.25,0]];shape=mxgraph.bpmn.task;whiteSpace=wrap;rectStyle=rounded;size=10;html=1;container=1;expand=0;collapsible=0;taskMarker=abstract;" parent="X2ThzPGtKYhUf4odgKNz-5" vertex="1">
          <mxGeometry x="580" y="60" width="120" height="80" as="geometry" />
        </mxCell>
        <mxCell id="awVs3pG0yQR2r-SzLTOa-10" style="edgeStyle=orthogonalEdgeStyle;rounded=0;orthogonalLoop=1;jettySize=auto;html=1;" parent="X2ThzPGtKYhUf4odgKNz-5" source="awVs3pG0yQR2r-SzLTOa-6" target="awVs3pG0yQR2r-SzLTOa-9" edge="1">
          <mxGeometry relative="1" as="geometry" />
        </mxCell>
        <mxCell id="awVs3pG0yQR2r-SzLTOa-6" value="Check driver location with Client destination" style="points=[[0.25,0,0],[0.5,0,0],[0.75,0,0],[1,0.25,0],[1,0.5,0],[1,0.75,0],[0.75,1,0],[0.5,1,0],[0.25,1,0],[0,0.75,0],[0,0.5,0],[0,0.25,0]];shape=mxgraph.bpmn.task;whiteSpace=wrap;rectStyle=rounded;size=10;html=1;container=1;expand=0;collapsible=0;taskMarker=abstract;" parent="X2ThzPGtKYhUf4odgKNz-5" vertex="1">
          <mxGeometry x="1060" y="60" width="120" height="80" as="geometry" />
        </mxCell>
        <mxCell id="awVs3pG0yQR2r-SzLTOa-9" value="Arrived pickup location?" style="points=[[0.25,0.25,0],[0.5,0,0],[0.75,0.25,0],[1,0.5,0],[0.75,0.75,0],[0.5,1,0],[0.25,0.75,0],[0,0.5,0]];shape=mxgraph.bpmn.gateway2;html=1;verticalLabelPosition=bottom;labelBackgroundColor=#ffffff;verticalAlign=top;align=center;perimeter=rhombusPerimeter;outlineConnect=0;outline=none;symbol=none;" parent="X2ThzPGtKYhUf4odgKNz-5" vertex="1">
          <mxGeometry x="1240" y="80" width="50" height="40" as="geometry" />
        </mxCell>
        <mxCell id="awVs3pG0yQR2r-SzLTOa-13" value="Check if client is in car" style="points=[[0.25,0,0],[0.5,0,0],[0.75,0,0],[1,0.25,0],[1,0.5,0],[1,0.75,0],[0.75,1,0],[0.5,1,0],[0.25,1,0],[0,0.75,0],[0,0.5,0],[0,0.25,0]];shape=mxgraph.bpmn.task;whiteSpace=wrap;rectStyle=rounded;size=10;html=1;container=1;expand=0;collapsible=0;taskMarker=abstract;" parent="X2ThzPGtKYhUf4odgKNz-5" vertex="1">
          <mxGeometry x="1390" y="60" width="120" height="80" as="geometry" />
        </mxCell>
        <mxCell id="awVs3pG0yQR2r-SzLTOa-14" style="edgeStyle=orthogonalEdgeStyle;rounded=0;orthogonalLoop=1;jettySize=auto;html=1;entryX=0;entryY=0.5;entryDx=0;entryDy=0;entryPerimeter=0;" parent="X2ThzPGtKYhUf4odgKNz-5" source="awVs3pG0yQR2r-SzLTOa-9" target="awVs3pG0yQR2r-SzLTOa-13" edge="1">
          <mxGeometry relative="1" as="geometry" />
        </mxCell>
        <mxCell id="awVs3pG0yQR2r-SzLTOa-15" value="Yes" style="edgeLabel;html=1;align=center;verticalAlign=middle;resizable=0;points=[];" parent="awVs3pG0yQR2r-SzLTOa-14" vertex="1" connectable="0">
          <mxGeometry x="0.05" y="-3" relative="1" as="geometry">
            <mxPoint as="offset" />
          </mxGeometry>
        </mxCell>
        <mxCell id="awVs3pG0yQR2r-SzLTOa-22" style="edgeStyle=orthogonalEdgeStyle;rounded=0;orthogonalLoop=1;jettySize=auto;html=1;" parent="X2ThzPGtKYhUf4odgKNz-5" source="awVs3pG0yQR2r-SzLTOa-17" target="awVs3pG0yQR2r-SzLTOa-21" edge="1">
          <mxGeometry relative="1" as="geometry" />
        </mxCell>
        <mxCell id="awVs3pG0yQR2r-SzLTOa-17" value="Is client in car?" style="points=[[0.25,0.25,0],[0.5,0,0],[0.75,0.25,0],[1,0.5,0],[0.75,0.75,0],[0.5,1,0],[0.25,0.75,0],[0,0.5,0]];shape=mxgraph.bpmn.gateway2;html=1;verticalLabelPosition=bottom;labelBackgroundColor=#ffffff;verticalAlign=top;align=center;perimeter=rhombusPerimeter;outlineConnect=0;outline=none;symbol=none;" parent="X2ThzPGtKYhUf4odgKNz-5" vertex="1">
          <mxGeometry x="1600" y="80" width="50" height="40" as="geometry" />
        </mxCell>
        <mxCell id="awVs3pG0yQR2r-SzLTOa-18" style="edgeStyle=orthogonalEdgeStyle;rounded=0;orthogonalLoop=1;jettySize=auto;html=1;entryX=0;entryY=0.5;entryDx=0;entryDy=0;entryPerimeter=0;" parent="X2ThzPGtKYhUf4odgKNz-5" source="awVs3pG0yQR2r-SzLTOa-13" target="awVs3pG0yQR2r-SzLTOa-17" edge="1">
          <mxGeometry relative="1" as="geometry" />
        </mxCell>
        <mxCell id="awVs3pG0yQR2r-SzLTOa-19" style="edgeStyle=orthogonalEdgeStyle;rounded=0;orthogonalLoop=1;jettySize=auto;html=1;exitX=0.5;exitY=1;exitDx=0;exitDy=0;exitPerimeter=0;entryX=0.5;entryY=1;entryDx=0;entryDy=0;entryPerimeter=0;" parent="X2ThzPGtKYhUf4odgKNz-5" source="awVs3pG0yQR2r-SzLTOa-17" target="awVs3pG0yQR2r-SzLTOa-13" edge="1">
          <mxGeometry relative="1" as="geometry" />
        </mxCell>
        <mxCell id="awVs3pG0yQR2r-SzLTOa-20" value="No" style="edgeLabel;html=1;align=center;verticalAlign=middle;resizable=0;points=[];" parent="awVs3pG0yQR2r-SzLTOa-19" vertex="1" connectable="0">
          <mxGeometry x="0.0383" y="3" relative="1" as="geometry">
            <mxPoint as="offset" />
          </mxGeometry>
        </mxCell>
        <mxCell id="awVs3pG0yQR2r-SzLTOa-21" value="Inform Client in the car" style="points=[[0.25,0,0],[0.5,0,0],[0.75,0,0],[1,0.25,0],[1,0.5,0],[1,0.75,0],[0.75,1,0],[0.5,1,0],[0.25,1,0],[0,0.75,0],[0,0.5,0],[0,0.25,0]];shape=mxgraph.bpmn.task;whiteSpace=wrap;rectStyle=rounded;size=10;html=1;container=1;expand=0;collapsible=0;taskMarker=abstract;" parent="X2ThzPGtKYhUf4odgKNz-5" vertex="1">
          <mxGeometry x="1720" y="60" width="120" height="80" as="geometry" />
        </mxCell>
        <mxCell id="X2ThzPGtKYhUf4odgKNz-24" value="prc-ride" style="swimlane;horizontal=0;whiteSpace=wrap;html=1;" parent="X2ThzPGtKYhUf4odgKNz-1" vertex="1">
          <mxGeometry y="-180" width="1980" height="200" as="geometry" />
        </mxCell>
        <mxCell id="TzzBlq6gYo3QLornzrnT-5" value="Get Ride information" style="points=[[0.25,0,0],[0.5,0,0],[0.75,0,0],[1,0.25,0],[1,0.5,0],[1,0.75,0],[0.75,1,0],[0.5,1,0],[0.25,1,0],[0,0.75,0],[0,0.5,0],[0,0.25,0]];shape=mxgraph.bpmn.task;whiteSpace=wrap;rectStyle=rounded;size=10;html=1;container=1;expand=0;collapsible=0;taskMarker=abstract;" parent="X2ThzPGtKYhUf4odgKNz-24" vertex="1">
          <mxGeometry x="290" y="50" width="120" height="80" as="geometry" />
        </mxCell>
        <mxCell id="awVs3pG0yQR2r-SzLTOa-28" value="Update Ride with client information and conciliate with Client information" style="points=[[0.25,0,0],[0.5,0,0],[0.75,0,0],[1,0.25,0],[1,0.5,0],[1,0.75,0],[0.75,1,0],[0.5,1,0],[0.25,1,0],[0,0.75,0],[0,0.5,0],[0,0.25,0]];shape=mxgraph.bpmn.task;whiteSpace=wrap;rectStyle=rounded;size=10;html=1;container=1;expand=0;collapsible=0;taskMarker=abstract;" parent="X2ThzPGtKYhUf4odgKNz-24" vertex="1">
          <mxGeometry x="1720" y="60" width="120" height="80" as="geometry" />
        </mxCell>
        <mxCell id="X2ThzPGtKYhUf4odgKNz-42" value="sys-drivers" style="swimlane;horizontal=0;whiteSpace=wrap;html=1;startSize=23;" parent="X2ThzPGtKYhUf4odgKNz-1" vertex="1">
          <mxGeometry y="-380" width="1980" height="200" as="geometry" />
        </mxCell>
        <mxCell id="awVs3pG0yQR2r-SzLTOa-2" value="Store driver location" style="points=[[0.25,0,0],[0.5,0,0],[0.75,0,0],[1,0.25,0],[1,0.5,0],[1,0.75,0],[0.75,1,0],[0.5,1,0],[0.25,1,0],[0,0.75,0],[0,0.5,0],[0,0.25,0]];shape=mxgraph.bpmn.task;whiteSpace=wrap;rectStyle=rounded;size=10;html=1;container=1;expand=0;collapsible=0;taskMarker=abstract;" parent="X2ThzPGtKYhUf4odgKNz-42" vertex="1">
          <mxGeometry x="800" y="50" width="120" height="80" as="geometry" />
        </mxCell>
        <mxCell id="X2ThzPGtKYhUf4odgKNz-44" value="sys-notifications" style="swimlane;horizontal=0;whiteSpace=wrap;html=1;" parent="X2ThzPGtKYhUf4odgKNz-1" vertex="1">
          <mxGeometry y="-580" width="1980" height="200" as="geometry" />
        </mxCell>
        <mxCell id="TzzBlq6gYo3QLornzrnT-0" value="Send notification to driver" style="points=[[0.25,0,0],[0.5,0,0],[0.75,0,0],[1,0.25,0],[1,0.5,0],[1,0.75,0],[0.75,1,0],[0.5,1,0],[0.25,1,0],[0,0.75,0],[0,0.5,0],[0,0.25,0]];shape=mxgraph.bpmn.task;whiteSpace=wrap;rectStyle=rounded;size=10;html=1;container=1;expand=0;collapsible=0;taskMarker=abstract;" parent="X2ThzPGtKYhUf4odgKNz-44" vertex="1">
          <mxGeometry x="170" y="60" width="120" height="80" as="geometry" />
        </mxCell>
        <mxCell id="X2ThzPGtKYhUf4odgKNz-7" value="" style="points=[[0.145,0.145,0],[0.5,0,0],[0.855,0.145,0],[1,0.5,0],[0.855,0.855,0],[0.5,1,0],[0.145,0.855,0],[0,0.5,0]];shape=mxgraph.bpmn.event;html=1;verticalLabelPosition=bottom;labelBackgroundColor=#ffffff;verticalAlign=top;align=center;perimeter=ellipsePerimeter;outlineConnect=0;aspect=fixed;outline=standard;symbol=general;" parent="X2ThzPGtKYhUf4odgKNz-44" vertex="1">
          <mxGeometry x="70" y="75" width="50" height="50" as="geometry" />
        </mxCell>
        <mxCell id="TzzBlq6gYo3QLornzrnT-1" style="edgeStyle=orthogonalEdgeStyle;rounded=0;orthogonalLoop=1;jettySize=auto;html=1;entryX=0;entryY=0.5;entryDx=0;entryDy=0;entryPerimeter=0;" parent="X2ThzPGtKYhUf4odgKNz-44" source="X2ThzPGtKYhUf4odgKNz-7" target="TzzBlq6gYo3QLornzrnT-0" edge="1">
          <mxGeometry relative="1" as="geometry" />
        </mxCell>
        <mxCell id="X2ThzPGtKYhUf4odgKNz-54" value="sys-ride-express-db" style="swimlane;horizontal=0;whiteSpace=wrap;html=1;" parent="X2ThzPGtKYhUf4odgKNz-1" vertex="1">
          <mxGeometry y="-780" width="1980" height="200" as="geometry" />
        </mxCell>
        <mxCell id="X2ThzPGtKYhUf4odgKNz-55" value="Get Ride" style="points=[[0.25,0,0],[0.5,0,0],[0.75,0,0],[1,0.25,0],[1,0.5,0],[1,0.75,0],[0.75,1,0],[0.5,1,0],[0.25,1,0],[0,0.75,0],[0,0.5,0],[0,0.25,0]];shape=mxgraph.bpmn.task;whiteSpace=wrap;rectStyle=rounded;size=10;html=1;container=1;expand=0;collapsible=0;taskMarker=abstract;" parent="X2ThzPGtKYhUf4odgKNz-54" vertex="1">
          <mxGeometry x="390" y="65" width="120" height="80" as="geometry" />
        </mxCell>
        <mxCell id="awVs3pG0yQR2r-SzLTOa-30" value="Update Ride" style="points=[[0.25,0,0],[0.5,0,0],[0.75,0,0],[1,0.25,0],[1,0.5,0],[1,0.75,0],[0.75,1,0],[0.5,1,0],[0.25,1,0],[0,0.75,0],[0,0.5,0],[0,0.25,0]];shape=mxgraph.bpmn.task;whiteSpace=wrap;rectStyle=rounded;size=10;html=1;container=1;expand=0;collapsible=0;taskMarker=abstract;" parent="X2ThzPGtKYhUf4odgKNz-54" vertex="1">
          <mxGeometry x="1720" y="60" width="120" height="80" as="geometry" />
        </mxCell>
        <mxCell id="X2ThzPGtKYhUf4odgKNz-58" value="" style="ellipse;whiteSpace=wrap;html=1;aspect=fixed;fillColor=#000000;" parent="X2ThzPGtKYhUf4odgKNz-54" vertex="1">
          <mxGeometry x="1890" y="75" width="50" height="50" as="geometry" />
        </mxCell>
        <mxCell id="awVs3pG0yQR2r-SzLTOa-33" style="edgeStyle=orthogonalEdgeStyle;rounded=0;orthogonalLoop=1;jettySize=auto;html=1;" parent="X2ThzPGtKYhUf4odgKNz-54" source="awVs3pG0yQR2r-SzLTOa-30" target="X2ThzPGtKYhUf4odgKNz-58" edge="1">
          <mxGeometry relative="1" as="geometry" />
        </mxCell>
        <mxCell id="X2ThzPGtKYhUf4odgKNz-60" style="edgeStyle=orthogonalEdgeStyle;rounded=0;orthogonalLoop=1;jettySize=auto;html=1;exitX=1;exitY=0.5;exitDx=0;exitDy=0;exitPerimeter=0;" parent="X2ThzPGtKYhUf4odgKNz-1" source="TzzBlq6gYo3QLornzrnT-5" target="X2ThzPGtKYhUf4odgKNz-55" edge="1">
          <mxGeometry relative="1" as="geometry">
            <mxPoint x="890" y="-130" as="sourcePoint" />
          </mxGeometry>
        </mxCell>
        <mxCell id="X2ThzPGtKYhUf4odgKNz-61" value="GET /ride/{id}" style="edgeLabel;html=1;align=center;verticalAlign=middle;resizable=0;points=[];" parent="X2ThzPGtKYhUf4odgKNz-60" vertex="1" connectable="0">
          <mxGeometry x="-0.2577" y="3" relative="1" as="geometry">
            <mxPoint as="offset" />
          </mxGeometry>
        </mxCell>
        <mxCell id="X2ThzPGtKYhUf4odgKNz-62" style="edgeStyle=orthogonalEdgeStyle;rounded=0;orthogonalLoop=1;jettySize=auto;html=1;entryX=0;entryY=0.5;entryDx=0;entryDy=0;entryPerimeter=0;" parent="X2ThzPGtKYhUf4odgKNz-1" source="X2ThzPGtKYhUf4odgKNz-55" target="X2ThzPGtKYhUf4odgKNz-38" edge="1">
          <mxGeometry relative="1" as="geometry" />
        </mxCell>
        <mxCell id="TzzBlq6gYo3QLornzrnT-2" style="edgeStyle=orthogonalEdgeStyle;rounded=0;orthogonalLoop=1;jettySize=auto;html=1;" parent="X2ThzPGtKYhUf4odgKNz-1" source="TzzBlq6gYo3QLornzrnT-0" target="X2ThzPGtKYhUf4odgKNz-8" edge="1">
          <mxGeometry relative="1" as="geometry" />
        </mxCell>
        <mxCell id="TzzBlq6gYo3QLornzrnT-3" value="Push ride ID" style="edgeLabel;html=1;align=center;verticalAlign=middle;resizable=0;points=[];" parent="TzzBlq6gYo3QLornzrnT-2" vertex="1" connectable="0">
          <mxGeometry x="-0.1413" y="-2" relative="1" as="geometry">
            <mxPoint as="offset" />
          </mxGeometry>
        </mxCell>
        <mxCell id="X2ThzPGtKYhUf4odgKNz-12" style="edgeStyle=orthogonalEdgeStyle;rounded=0;orthogonalLoop=1;jettySize=auto;html=1;" parent="X2ThzPGtKYhUf4odgKNz-1" source="X2ThzPGtKYhUf4odgKNz-8" edge="1">
          <mxGeometry relative="1" as="geometry">
            <mxPoint x="350" y="150" as="targetPoint" />
            <Array as="points">
              <mxPoint x="350" y="320" />
            </Array>
          </mxGeometry>
        </mxCell>
        <mxCell id="TzzBlq6gYo3QLornzrnT-4" value="GET /ride/{id}" style="edgeLabel;html=1;align=center;verticalAlign=middle;resizable=0;points=[];" parent="X2ThzPGtKYhUf4odgKNz-12" vertex="1" connectable="0">
          <mxGeometry x="0.113" y="1" relative="1" as="geometry">
            <mxPoint as="offset" />
          </mxGeometry>
        </mxCell>
        <mxCell id="TzzBlq6gYo3QLornzrnT-6" value="" style="edgeStyle=orthogonalEdgeStyle;rounded=0;orthogonalLoop=1;jettySize=auto;html=1;" parent="X2ThzPGtKYhUf4odgKNz-1" source="X2ThzPGtKYhUf4odgKNz-11" target="TzzBlq6gYo3QLornzrnT-5" edge="1">
          <mxGeometry relative="1" as="geometry" />
        </mxCell>
        <mxCell id="TzzBlq6gYo3QLornzrnT-7" value="GET /ride/{id}" style="edgeLabel;html=1;align=center;verticalAlign=middle;resizable=0;points=[];" parent="TzzBlq6gYo3QLornzrnT-6" vertex="1" connectable="0">
          <mxGeometry x="0.0125" y="2" relative="1" as="geometry">
            <mxPoint as="offset" />
          </mxGeometry>
        </mxCell>
        <mxCell id="CamVfR9ugrW1JxGiYKS_-1" value="" style="edgeStyle=orthogonalEdgeStyle;rounded=0;orthogonalLoop=1;jettySize=auto;html=1;" parent="X2ThzPGtKYhUf4odgKNz-1" source="X2ThzPGtKYhUf4odgKNz-38" target="CamVfR9ugrW1JxGiYKS_-0" edge="1">
          <mxGeometry relative="1" as="geometry">
            <mxPoint x="700" y="320" as="sourcePoint" />
            <mxPoint x="1170" y="-60" as="targetPoint" />
          </mxGeometry>
        </mxCell>
        <mxCell id="awVs3pG0yQR2r-SzLTOa-7" value="" style="edgeStyle=orthogonalEdgeStyle;rounded=0;orthogonalLoop=1;jettySize=auto;html=1;" parent="X2ThzPGtKYhUf4odgKNz-1" source="CamVfR9ugrW1JxGiYKS_-0" target="awVs3pG0yQR2r-SzLTOa-6" edge="1">
          <mxGeometry relative="1" as="geometry" />
        </mxCell>
        <mxCell id="CamVfR9ugrW1JxGiYKS_-0" value="Inform driver location" style="points=[[0.25,0,0],[0.5,0,0],[0.75,0,0],[1,0.25,0],[1,0.5,0],[1,0.75,0],[0.75,1,0],[0.5,1,0],[0.25,1,0],[0,0.75,0],[0,0.5,0],[0,0.25,0]];shape=mxgraph.bpmn.task;whiteSpace=wrap;rectStyle=rounded;size=10;html=1;container=1;expand=0;collapsible=0;taskMarker=abstract;" parent="X2ThzPGtKYhUf4odgKNz-1" vertex="1">
          <mxGeometry x="800" y="280" width="120" height="80" as="geometry" />
        </mxCell>
        <mxCell id="awVs3pG0yQR2r-SzLTOa-0" style="edgeStyle=orthogonalEdgeStyle;rounded=0;orthogonalLoop=1;jettySize=auto;html=1;entryX=0.5;entryY=1;entryDx=0;entryDy=0;entryPerimeter=0;" parent="X2ThzPGtKYhUf4odgKNz-1" source="CamVfR9ugrW1JxGiYKS_-0" target="CamVfR9ugrW1JxGiYKS_-6" edge="1">
          <mxGeometry relative="1" as="geometry" />
        </mxCell>
        <mxCell id="awVs3pG0yQR2r-SzLTOa-1" value="POST /driver/{id}/location/" style="edgeLabel;html=1;align=center;verticalAlign=middle;resizable=0;points=[];" parent="awVs3pG0yQR2r-SzLTOa-0" vertex="1" connectable="0">
          <mxGeometry x="-0.2667" y="2" relative="1" as="geometry">
            <mxPoint as="offset" />
          </mxGeometry>
        </mxCell>
        <mxCell id="awVs3pG0yQR2r-SzLTOa-3" style="edgeStyle=orthogonalEdgeStyle;rounded=0;orthogonalLoop=1;jettySize=auto;html=1;" parent="X2ThzPGtKYhUf4odgKNz-1" source="CamVfR9ugrW1JxGiYKS_-6" target="awVs3pG0yQR2r-SzLTOa-2" edge="1">
          <mxGeometry relative="1" as="geometry" />
        </mxCell>
        <mxCell id="awVs3pG0yQR2r-SzLTOa-4" value="POST /driver/{id}/location" style="edgeLabel;html=1;align=center;verticalAlign=middle;resizable=0;points=[];" parent="awVs3pG0yQR2r-SzLTOa-3" vertex="1" connectable="0">
          <mxGeometry x="0.0727" y="2" relative="1" as="geometry">
            <mxPoint as="offset" />
          </mxGeometry>
        </mxCell>
        <mxCell id="awVs3pG0yQR2r-SzLTOa-5" style="edgeStyle=orthogonalEdgeStyle;rounded=0;orthogonalLoop=1;jettySize=auto;html=1;" parent="X2ThzPGtKYhUf4odgKNz-1" source="awVs3pG0yQR2r-SzLTOa-2" edge="1">
          <mxGeometry relative="1" as="geometry">
            <mxPoint x="920" y="300" as="targetPoint" />
            <Array as="points">
              <mxPoint x="990" y="-290" />
              <mxPoint x="990" y="300" />
              <mxPoint x="920" y="300" />
            </Array>
          </mxGeometry>
        </mxCell>
        <mxCell id="awVs3pG0yQR2r-SzLTOa-11" style="edgeStyle=orthogonalEdgeStyle;rounded=0;orthogonalLoop=1;jettySize=auto;html=1;entryX=0.5;entryY=1;entryDx=0;entryDy=0;entryPerimeter=0;" parent="X2ThzPGtKYhUf4odgKNz-1" source="awVs3pG0yQR2r-SzLTOa-9" target="CamVfR9ugrW1JxGiYKS_-0" edge="1">
          <mxGeometry relative="1" as="geometry">
            <Array as="points">
              <mxPoint x="1265" y="380" />
              <mxPoint x="860" y="380" />
            </Array>
          </mxGeometry>
        </mxCell>
        <mxCell id="awVs3pG0yQR2r-SzLTOa-12" value="No" style="edgeLabel;html=1;align=center;verticalAlign=middle;resizable=0;points=[];" parent="awVs3pG0yQR2r-SzLTOa-11" vertex="1" connectable="0">
          <mxGeometry x="-0.1183" y="-1" relative="1" as="geometry">
            <mxPoint as="offset" />
          </mxGeometry>
        </mxCell>
        <mxCell id="awVs3pG0yQR2r-SzLTOa-24" style="edgeStyle=orthogonalEdgeStyle;rounded=0;orthogonalLoop=1;jettySize=auto;html=1;" parent="X2ThzPGtKYhUf4odgKNz-1" source="awVs3pG0yQR2r-SzLTOa-21" target="awVs3pG0yQR2r-SzLTOa-23" edge="1">
          <mxGeometry relative="1" as="geometry" />
        </mxCell>
        <mxCell id="awVs3pG0yQR2r-SzLTOa-25" value="PATCH /ride/{id}" style="edgeLabel;html=1;align=center;verticalAlign=middle;resizable=0;points=[];" parent="awVs3pG0yQR2r-SzLTOa-24" vertex="1" connectable="0">
          <mxGeometry x="-0.2" y="3" relative="1" as="geometry">
            <mxPoint as="offset" />
          </mxGeometry>
        </mxCell>
        <mxCell id="awVs3pG0yQR2r-SzLTOa-29" style="edgeStyle=orthogonalEdgeStyle;rounded=0;orthogonalLoop=1;jettySize=auto;html=1;entryX=0.5;entryY=1;entryDx=0;entryDy=0;entryPerimeter=0;" parent="X2ThzPGtKYhUf4odgKNz-1" source="awVs3pG0yQR2r-SzLTOa-23" target="awVs3pG0yQR2r-SzLTOa-28" edge="1">
          <mxGeometry relative="1" as="geometry" />
        </mxCell>
        <mxCell id="awVs3pG0yQR2r-SzLTOa-31" style="edgeStyle=orthogonalEdgeStyle;rounded=0;orthogonalLoop=1;jettySize=auto;html=1;entryX=0.5;entryY=1;entryDx=0;entryDy=0;entryPerimeter=0;" parent="X2ThzPGtKYhUf4odgKNz-1" source="awVs3pG0yQR2r-SzLTOa-28" target="awVs3pG0yQR2r-SzLTOa-30" edge="1">
          <mxGeometry relative="1" as="geometry" />
        </mxCell>
        <mxCell id="awVs3pG0yQR2r-SzLTOa-32" value="PATCH /ride/{id}" style="edgeLabel;html=1;align=center;verticalAlign=middle;resizable=0;points=[];" parent="awVs3pG0yQR2r-SzLTOa-31" vertex="1" connectable="0">
          <mxGeometry x="-0.4231" y="1" relative="1" as="geometry">
            <mxPoint as="offset" />
          </mxGeometry>
        </mxCell>
        <mxCell id="PCahLEgkdWDQpwznTjNG-0" value="&lt;h1&gt;Diagram for the interaction between the Driver and the Exp API when it&#39;s looking and accepting a ride&lt;br&gt;&lt;/h1&gt;" style="text;html=1;align=center;verticalAlign=middle;resizable=0;points=[];autosize=1;strokeColor=none;fillColor=none;" parent="X2ThzPGtKYhUf4odgKNz-1" vertex="1">
          <mxGeometry y="-850" width="1180" height="70" as="geometry" />
        </mxCell>
      </root>
    </mxGraphModel>
  </diagram>
</mxfile>
